<?xml version="1.0" encoding="utf-8"?>
<!-- Generator: Adobe Illustrator 24.3.0, SVG Export Plug-In . SVG Version: 6.00 Build 0)  -->
<svg version="1.1" id="Layer_1" xmlns="http://www.w3.org/2000/svg" xmlns:xlink="http://www.w3.org/1999/xlink" x="0px" y="0px"
	 viewBox="0 0 48 48" style="enable-background:new 0 0 48 48;" xml:space="preserve">
<path d="M43.5,24c0-0.3,0-0.6,0-0.9l4.5-1.4c-0.1-0.9-0.2-1.9-0.5-2.8l-4.7,0c-0.2-0.6-0.4-1.2-0.6-1.8l3.8-2.8
	c-0.4-0.9-0.8-1.7-1.3-2.5l-4.5,1.5c-0.3-0.5-0.7-1-1.1-1.5L42,8c-0.6-0.7-1.3-1.4-2-2l-3.8,2.8c-0.5-0.4-1-0.8-1.5-1.1l1.5-4.5
	c-0.8-0.5-1.6-0.9-2.5-1.3l-2.8,3.8c-0.6-0.2-1.2-0.4-1.8-0.6l0-4.7c-0.9-0.2-1.8-0.4-2.8-0.5l-1.4,4.5c-0.3,0-0.6,0-0.9,0
	s-0.6,0-0.9,0L21.6,0c-0.9,0.1-1.9,0.2-2.8,0.5l0,4.7c-0.6,0.2-1.2,0.4-1.8,0.6l-2.8-3.8c-0.9,0.4-1.7,0.8-2.5,1.3l1.5,4.5
	c-0.5,0.3-1,0.7-1.5,1.1L8,6C7.3,6.6,6.6,7.3,6,8l2.8,3.8c-0.4,0.5-0.8,1-1.1,1.5l-4.5-1.5c-0.5,0.8-0.9,1.6-1.3,2.5l3.8,2.8
	c-0.2,0.6-0.4,1.2-0.6,1.8l-4.7,0c-0.2,0.9-0.4,1.8-0.5,2.8l4.5,1.4c0,0.3,0,0.6,0,0.9s0,0.6,0,0.9L0,26.4c0.1,0.9,0.2,1.9,0.5,2.8
	l4.7,0c0.2,0.6,0.4,1.2,0.6,1.8l-3.8,2.8c0.4,0.9,0.8,1.7,1.3,2.5l4.5-1.5c0.3,0.5,0.7,1,1.1,1.5L6,40c0.6,0.7,1.3,1.4,2,2l3.8-2.8
	c0.5,0.4,1,0.8,1.5,1.1l-1.5,4.5c0.8,0.5,1.6,0.9,2.5,1.3l2.8-3.8c0.6,0.2,1.2,0.4,1.8,0.6l0,4.7c0.9,0.2,1.8,0.4,2.8,0.5l1.4-4.5
	c0.3,0,0.6,0,0.9,0s0.6,0,0.9,0l1.4,4.5c0.9-0.1,1.9-0.2,2.8-0.5l0-4.7c0.6-0.2,1.2-0.4,1.8-0.6l2.8,3.8c0.9-0.4,1.7-0.8,2.5-1.3
	l-1.5-4.5c0.5-0.3,1-0.7,1.5-1.1L40,42c0.7-0.6,1.4-1.3,2-2l-2.8-3.8c0.4-0.5,0.8-1,1.1-1.5l4.5,1.5c0.5-0.8,0.9-1.6,1.3-2.5
	l-3.8-2.8c0.2-0.6,0.4-1.2,0.6-1.8l4.7,0c0.2-0.9,0.4-1.8,0.5-2.8l-4.5-1.4C43.5,24.6,43.5,24.3,43.5,24z M24,29.1
	c-2.8,0-5.1-2.3-5.1-5.1s2.3-5.1,5.1-5.1s5.1,2.3,5.1,5.1S26.8,29.1,24,29.1z"/>
</svg>
