<?xml version="1.0" encoding="utf-8"?>
<!-- Generator: Adobe Illustrator 24.3.0, SVG Export Plug-In . SVG Version: 6.00 Build 0)  -->
<svg version="1.1" id="Layer_1" xmlns="http://www.w3.org/2000/svg" xmlns:xlink="http://www.w3.org/1999/xlink" x="0px" y="0px"
	 viewBox="0 0 240 240" style="enable-background:new 0 0 240 240;" xml:space="preserve">
<style type="text/css">
	.st0{fill:#253843;}
	.st1{fill:#ECAE34;}
</style>
<path class="st0" d="M120.42,216.46c7.2,0,14.41,0.07,21.61-0.03c2.71-0.04,4.49,1.07,5.45,3.48c0.9,2.27-0.08,4.8-2.09,6.44
	c-1.26,1.03-2.8,0.58-4.16,0.93c-1.35,0.35-2.17,1-2.84,1.94c-6.57,9.23-16.09,12.03-26.76,8.07c-4.06-1.51-7.42-4.27-9.79-8
	c-0.82-1.29-1.65-1.84-3.25-1.9c-4.82-0.18-7.14-4.74-4.68-8.82c1.01-1.68,2.51-2.15,4.37-2.14
	C105.66,216.49,113.04,216.46,120.42,216.46z"/>
<path class="st0" d="M120.18,201.33c8.42,0,16.84,0,25.26,0c3.57,0,5.77,1.75,5.89,4.67c0.13,3.21-2.1,5.47-5.79,5.5
	c-8.25,0.06-16.49-0.01-24.74-0.05c-8.85-0.04-17.7-0.02-26.55-0.19c-3.43-0.06-5.17-2.16-5.06-5.46c0.09-2.75,2.19-4.48,5.46-4.48
	C103.16,201.33,111.67,201.33,120.18,201.33z"/>
<path class="st1" d="M115.36,15.49c0-3.3-0.03-6.6,0.01-9.9c0.03-3,1.81-4.99,4.42-5.05c2.89-0.07,4.77,1.77,4.8,4.91
	c0.06,6.86,0.07,13.72,0.03,20.58c-0.02,2.77-1.89,4.73-4.4,4.8c-2.73,0.09-4.7-1.7-4.81-4.66c-0.13-3.56-0.03-7.12-0.03-10.68
	C115.38,15.49,115.37,15.49,115.36,15.49z"/>
<path class="st1" d="M187.23,72.5c-0.09-3.4,2.02-4.41,3.63-5.29c5.28-2.91,10.73-5.52,16.16-8.15c3.03-1.46,5.84-0.52,7.04,2.16
	c1.03,2.29-0.36,4.76-3.26,6.14c-4.9,2.35-9.75,4.81-14.63,7.21c-1.08,0.53-2.16,0.98-3.37,1.26
	C189.37,76.65,187.2,75.09,187.23,72.5z"/>
<path class="st1" d="M177.92,21.26c0.24,3.16-2.05,5-3.34,7.21c-2.51,4.3-5.43,8.36-8.23,12.48c-1.59,2.34-3.97,2.97-6.05,1.7
	c-2.39-1.45-2.99-3.16-1.5-5.93c2.45-4.58,5.16-9.02,8.61-12.97c0.97-1.12,1.57-2.59,2.26-3.95c0.97-1.9,2.56-3.38,4.98-2.91
	C176.86,17.31,177.93,18.94,177.92,21.26z"/>
<path class="st1" d="M66.57,17.22c1.79-0.28,3.05,0.63,4,2.34c2.79,5.03,6.33,9.58,9.47,14.39c0.61,0.93,1.22,1.87,1.77,2.84
	c1.04,1.84,0.14,4.82-1.73,5.82c-2.36,1.25-4.29,0.59-5.8-1.41c-3.51-4.68-6.44-9.74-9.76-14.54c-0.78-1.13-1.5-2.33-2.04-3.59
	C61.21,20.04,63.12,17.24,66.57,17.22z"/>
<path class="st1" d="M52.75,71.8c-0.02,3.39-3.16,5.49-6.38,3.98c-6.17-2.9-12.25-5.98-18.31-9.1c-2.02-1.04-2.56-3.74-1.47-5.93
	c1.01-2.02,3.32-3.12,5.49-2.07c4.08,1.98,8.3,3.68,12.06,6.34c1.84,1.31,4.16,1.94,6.26,2.88C52.09,68.65,52.87,69.95,52.75,71.8z"
	/>
<path class="st1" d="M174.7,113.2c-0.06,0.42-0.13,0.83-0.2,1.25c-0.12,0.69-0.25,1.37-0.42,2.05c-0.22,1.04-0.49,2.07-0.8,3.09
	c-0.03,0.13-0.07,0.26-0.12,0.38c-0.07,0.23-0.15,0.47-0.22,0.7c-0.29,0.91-0.62,1.81-0.98,2.69c-0.12,0.29-0.24,0.59-0.37,0.88
	c-0.63,1.47-1.35,2.93-2.15,4.35c-0.48,0.84-0.99,1.67-1.53,2.49c-0.2,0.29-0.39,0.58-0.58,0.87c-0.57,0.82-1.17,1.62-1.8,2.42
	c-1.71,2.17-3.39,4.35-4.99,6.58c-1.6,2.22-3.14,4.48-4.58,6.8c-0.01,0.01-0.02,0.03-0.02,0.04c-0.32,0.51-0.64,1.03-0.94,1.55
	c-1.86,3.12-3.53,6.36-4.95,9.76c-0.09,0.24-0.19,0.47-0.29,0.7c-0.1,0.24-0.19,0.48-0.28,0.71c-0.18,0.47-0.36,0.94-0.54,1.41
	c-0.01,0.02-0.01,0.03-0.02,0.04c-0.34,0.94-0.67,1.87-0.97,2.81c-0.31,0.95-0.59,1.91-0.86,2.88c-0.39,1.44-0.73,2.9-1.02,4.37
	c-0.09,0.49-0.18,0.98-0.27,1.48c-0.16,0.98-0.3,1.98-0.42,2.97c-0.22,1.99-0.35,4.01-0.36,6.04c0,1.01-0.02,1.82-0.11,2.45
	c-0.04,0.43-0.12,0.78-0.24,1.07c-0.03,0.08-0.07,0.15-0.1,0.22c-0.04,0.07-0.08,0.13-0.11,0.18c-0.61,0.81-1.84,0.9-4.34,0.9
	c-12,0-23.99-0.05-35.98,0.06c-2,0.02-2.61-0.52-2.41-2.45c0.16-1.63,0.03-3.3,0.06-4.95c0.01-0.83,0.02-1.48,0.07-1.99
	c0.03-0.22,0.06-0.41,0.09-0.59c0.02-0.05,0.03-0.11,0.05-0.16c0.01-0.05,0.03-0.1,0.05-0.15c0.03-0.08,0.06-0.16,0.11-0.23
	c0.02-0.04,0.05-0.07,0.07-0.11c0.02-0.04,0.05-0.07,0.09-0.1c0.47-0.53,1.44-0.58,3.42-0.64c3.3-0.09,6.6,0.03,9.9-0.02
	c1.8-0.02,3.11-0.48,3.93-1.37c0.12-0.13,0.22-0.27,0.32-0.41c0.07-0.12,0.15-0.24,0.21-0.37c0.07-0.13,0.12-0.26,0.17-0.4
	c0.06-0.16,0.11-0.33,0.15-0.5c0.13-0.48,0.19-1.01,0.18-1.6c-0.04-2.9-1.91-4.79-4.98-4.77c-3.73,0.03-7.46,0.19-11.19,0.37
	c-1.44,0.08-2.17-0.12-2.17-1.9c-0.01-1.77-0.03-2.91,0.17-3.64c0.06-0.18,0.12-0.34,0.21-0.48c0.03-0.04,0.05-0.08,0.09-0.12
	c0.03-0.04,0.06-0.07,0.1-0.1c0.58-0.62,1.8-0.61,4.29-0.6c1.99,0.01,3.5-0.35,4.55-1.07c0.14-0.1,0.28-0.21,0.41-0.33
	c0.14-0.13,0.28-0.28,0.4-0.43c0.28-0.36,0.49-0.76,0.63-1.22c0.22-0.66,0.29-1.42,0.21-2.29c-0.25-2.82-2.06-4.37-5.08-4.44
	c-1.89-0.04-4.37,0.91-5.47-0.32c-0.89-0.99-0.15-3.44-0.14-5.25c0.01-9.82,0.06-19.64,0.02-29.46c-0.03-5.71-0.68-11.4,0.07-17.14
	c0.15-1.15,0.36-2.25,0.64-3.29c0.11-0.42,0.24-0.82,0.37-1.22c0.16-0.46,0.33-0.92,0.52-1.36c0.45-1.05,0.98-2.03,1.61-2.95
	c0.42-0.62,0.89-1.2,1.4-1.76c0.25-0.28,0.52-0.55,0.8-0.81c1.39-1.33,3.06-2.45,5.04-3.38c6.8-3.16,15.09-1.25,20.15,4.61
	c3.47,4,4.91,9.13,4.17,13.95c-0.05,0.33-0.11,0.65-0.18,0.97c-0.14,0.67-0.33,1.33-0.56,1.98c-0.47,1.34-1.13,2.63-1.97,3.83
	c-0.21,0.29-0.42,0.58-0.63,0.86c-0.15,0.19-0.3,0.38-0.45,0.57c-0.15,0.18-0.3,0.35-0.44,0.52c-0.3,0.33-0.6,0.65-0.9,0.96
	c-2.02,2-4.37,3.44-7.11,4.16v-11.12h0.68c1.28,0,2.44-0.52,3.28-1.36c0.84-0.84,1.36-2,1.36-3.28c0-2.56-2.08-4.64-4.64-4.64
	h-10.64c-1.28,0-2.44,0.52-3.28,1.36c-0.84,0.84-1.36,2-1.36,3.28c0,2.56,2.08,4.64,4.64,4.64h0.68v11.69h-3.32
	c-1.28,0-2.44,0.52-3.27,1.36c-0.84,0.84-1.36,2-1.36,3.28c0,2.56,2.07,4.64,4.63,4.64h7.26c1.75-0.02,3.48-0.12,5.19-0.37
	c0,0,0,0,0.01-0.01c3.26-0.46,6.43-1.46,9.49-3.47c1.11-0.74,2.14-1.5,3.09-2.31c0.01,0,0.01,0,0.01-0.01
	c0.48-0.4,0.93-0.8,1.37-1.22c0.22-0.21,0.43-0.41,0.64-0.63c0.21-0.21,0.42-0.43,0.62-0.65c0.23-0.25,0.45-0.5,0.67-0.76
	c0.18-0.22,0.35-0.43,0.53-0.65c0.66-0.83,1.26-1.7,1.79-2.59c0.69-1.14,1.27-2.32,1.74-3.56c0.18-0.44,0.34-0.9,0.48-1.36
	c0.32-1,0.58-2.03,0.77-3.1c0.07-0.39,0.13-0.79,0.18-1.19c0.12-0.93,0.2-1.88,0.22-2.85c0.07-1.85-0.05-3.79-0.34-5.8
	c-0.84-5.93-3.52-10.49-7.09-14.88c-5.26-6.48-18.07-9.53-26.22-6.75c-2.65,0.9-5.41,1.52-7.73,3.07c-1.83,1.22-3.45,2.55-4.86,3.99
	c-2.41,2.44-4.24,5.2-5.49,8.26c-0.22,0.55-0.43,1.12-0.61,1.69c-0.2,0.58-0.37,1.17-0.52,1.77c-0.15,0.6-0.28,1.21-0.4,1.83
	c-0.33,1.86-0.5,3.8-0.5,5.83c0,21.29,0,42.58,0.01,63.87v3.24c-0.01,0-0.01,0-0.02,0c-0.27,0.03-0.55,0.06-0.81,0.09
	c-0.79-4.8-2.69-9.18-4.85-13.44c-3.19-6.31-6.82-12.26-11.58-17.61c-4.41-4.97-7.25-10.92-8.94-17.48
	c-1.7-6.65-2.7-13.42-1.79-20.09c0.16-1.19,0.35-2.37,0.57-3.55c0.12-0.6,0.25-1.2,0.38-1.8c0.17-0.79,0.36-1.57,0.57-2.35
	c0.25-0.96,0.53-1.9,0.83-2.84c0.21-0.65,0.43-1.3,0.67-1.94c0.38-1.06,0.8-2.1,1.25-3.12c0.72-1.64,1.52-3.23,2.42-4.77
	c0.25-0.43,0.51-0.86,0.77-1.28c1.02-1.63,2.14-3.19,3.38-4.69c0.42-0.51,0.85-1.02,1.28-1.52c0.86-1,1.73-1.97,2.64-2.92
	c0.44-0.48,0.9-0.95,1.38-1.42c0.7-0.7,1.41-1.38,2.13-2.05c0.63-0.58,1.28-1.16,1.93-1.71c0.01-0.01,0.01,0,0.01,0
	c4.6-3.9,9.78-7.07,15.8-9.07c13.29-4.43,26.49-4.87,39.52,0.63c10.12,4.28,19.02,10.39,25.01,19.85c4.65,7.32,8.26,15.1,9.35,23.92
	C175.44,103.16,175.45,108.28,174.7,113.2z"/>
<path class="st0" d="M182.56,92.08c-1.9-11.15-7.36-20.64-14.33-29.26c-4.87-6.04-11.33-10.28-17.95-14.21
	c-4.14-2.46-8.94-3.19-13.43-4.68c-5.25-1.73-10.79-2.3-16.33-2.15c-7.49,0.19-14.84,1.06-22.06,3.4
	c-7.45,2.42-14.1,6.14-19.89,11.27c-14.32,12.68-22.22,28.46-22.3,48.99c-0.5,3.29,0.36,7.66,1.36,11.86
	c2.32,9.68,6.55,18.32,12.87,26.34c9.62,12.21,16.1,26.06,16.12,42.19c0.01,4.66,3.25,9.21,7.48,10.2c2.9,0.69,6.02,0.42,9.04,0.51
	c13.35,0.37,26.72,0.41,40.07-0.35c5.58-0.31,9.89-4.04,10.1-9.99c0.25-7.26,1.58-14.24,4.17-20.98c3.47-9.01,8.44-17.1,14.43-24.72
	c7.76-9.89,11.07-21.55,11.75-34.01C183.92,101.63,183.37,96.84,182.56,92.08z M174.7,113.2c-0.06,0.42-0.13,0.83-0.2,1.25
	c-0.12,0.69-0.25,1.37-0.42,2.05c-0.22,1.04-0.49,2.07-0.8,3.09c-0.03,0.13-0.07,0.26-0.12,0.38c-0.07,0.23-0.15,0.47-0.22,0.7
	c-0.29,0.91-0.62,1.81-0.98,2.69c-0.12,0.29-0.24,0.59-0.37,0.88c-0.63,1.47-1.35,2.93-2.15,4.35c-0.48,0.84-0.99,1.67-1.53,2.49
	c-0.2,0.29-0.39,0.58-0.58,0.87c-0.57,0.83-1.17,1.65-1.81,2.46c-1.71,2.16-3.37,4.33-4.98,6.54c-1.6,2.22-3.14,4.48-4.58,6.8
	c-0.01,0.01-0.02,0.03-0.02,0.04c-0.32,0.51-0.63,1.03-0.94,1.55c-1.86,3.12-3.53,6.36-4.95,9.76c-0.09,0.24-0.19,0.47-0.29,0.7
	c-0.1,0.24-0.19,0.48-0.28,0.71c-0.18,0.47-0.36,0.94-0.54,1.41c-0.01,0.02-0.01,0.03-0.02,0.04c-0.34,0.94-0.67,1.87-0.97,2.81
	c-0.31,0.95-0.59,1.91-0.86,2.88c-0.39,1.44-0.73,2.9-1.02,4.37c-0.09,0.49-0.18,0.98-0.27,1.48c-0.16,0.98-0.3,1.98-0.42,2.97
	c-0.22,1.99-0.35,4.01-0.36,6.04c0,1.01-0.02,1.82-0.11,2.45c-0.04,0.43-0.12,0.78-0.24,1.07c-0.03,0.08-0.07,0.15-0.1,0.22
	c-0.04,0.07-0.08,0.13-0.11,0.18c-0.58,0.84-1.8,0.94-4.36,0.94c-12,0-23.99-0.06-35.98,0.06c-2,0.01-2.6-0.53-2.41-2.45
	c0.16-1.64,0.04-3.3,0.07-4.95c0.01-0.85,0.02-1.51,0.08-2.03c0.03-0.22,0.06-0.41,0.09-0.59c0.02-0.05,0.03-0.11,0.05-0.16
	c0.01-0.05,0.03-0.1,0.05-0.15c0.03-0.08,0.06-0.16,0.11-0.23c0.02-0.04,0.05-0.07,0.07-0.11c0.02-0.04,0.05-0.07,0.09-0.1
	c0.47-0.53,1.44-0.58,3.42-0.64c3.3-0.09,6.6,0.03,9.9-0.02c1.8-0.02,3.11-0.48,3.93-1.37c0.12-0.13,0.22-0.27,0.32-0.41
	c0.07-0.12,0.15-0.24,0.21-0.37c0.07-0.13,0.12-0.26,0.17-0.4c0.06-0.16,0.11-0.33,0.15-0.5c0.12-0.47,0.17-0.99,0.16-1.56
	c-0.04-2.9-1.91-4.79-4.98-4.77c-3.73,0.03-7.46,0.18-11.18,0.37c-1.45,0.07-2.17-0.13-2.18-1.9c-0.01-1.81-0.03-2.96,0.19-3.68
	c0.06-0.18,0.12-0.34,0.21-0.48c0.03-0.04,0.05-0.08,0.09-0.12c0.03-0.04,0.06-0.07,0.1-0.1c0.58-0.62,1.8-0.61,4.29-0.6
	c1.99,0.01,3.5-0.35,4.55-1.07c0.14-0.1,0.28-0.21,0.41-0.33c0.14-0.13,0.28-0.28,0.4-0.43c0.28-0.36,0.49-0.76,0.63-1.22
	c0.2-0.65,0.26-1.4,0.19-2.25c-0.25-2.82-2.06-4.37-5.08-4.44c-1.88-0.05-4.37,0.9-5.47-0.32c-0.89-1-0.14-3.45-0.14-5.26
	c0.01-9.81,0.07-19.63,0.02-29.45c-0.03-5.72-0.68-11.4,0.07-17.15c0.15-1.16,0.37-2.27,0.66-3.32c0.11-0.42,0.24-0.82,0.37-1.22
	c0.16-0.46,0.33-0.92,0.52-1.36c0.45-1.05,0.98-2.03,1.61-2.95c0.42-0.62,0.89-1.2,1.4-1.76c0.25-0.28,0.52-0.55,0.8-0.81
	c1.39-1.33,3.06-2.45,5.04-3.38c6.8-3.16,15.09-1.25,20.15,4.61c3.47,4,4.91,9.13,4.17,13.95c-0.05,0.33-0.11,0.65-0.18,0.97
	c-0.14,0.67-0.33,1.33-0.56,1.98c-0.47,1.34-1.13,2.63-1.97,3.83c0,0.01-0.01,0.03-0.02,0.04c-0.2,0.28-0.4,0.56-0.61,0.82
	c-0.15,0.19-0.3,0.38-0.45,0.57c-0.15,0.18-0.3,0.35-0.44,0.52c-0.29,0.33-0.59,0.65-0.9,0.96c-2.01,2.02-4.36,3.47-7.11,4.19
	v-11.15h0.68c1.28,0,2.44-0.52,3.28-1.36c0.84-0.84,1.36-2,1.36-3.28c0-2.56-2.08-4.64-4.64-4.64h-10.64
	c-1.28,0-2.44,0.52-3.28,1.36c-0.84,0.84-1.36,2-1.36,3.28c0,2.56,2.08,4.64,4.64,4.64h0.68v11.69h-3.32
	c-1.28,0-2.44,0.52-3.27,1.36c-0.84,0.84-1.36,2-1.36,3.28c0,2.56,2.07,4.64,4.63,4.64h7.26c1.75-0.02,3.48-0.12,5.19-0.37
	c0,0,0,0,0.01-0.01c3.26-0.46,6.43-1.46,9.49-3.47c1.11-0.74,2.14-1.5,3.09-2.31c0.01,0,0.01,0,0.01-0.01
	c0.47-0.4,0.93-0.81,1.37-1.22c0.22-0.21,0.43-0.41,0.64-0.63c0.21-0.22,0.42-0.43,0.62-0.65c0.23-0.25,0.45-0.5,0.67-0.76
	c0.18-0.22,0.35-0.43,0.53-0.65c0.66-0.83,1.26-1.7,1.79-2.59c0.69-1.14,1.27-2.32,1.74-3.56c0.18-0.44,0.34-0.9,0.48-1.36
	c0.32-1,0.58-2.03,0.77-3.1c0.07-0.39,0.13-0.79,0.18-1.19c0.12-0.93,0.2-1.88,0.22-2.85c0.05-1.85-0.06-3.76-0.35-5.76
	c-0.85-5.93-3.53-10.49-7.1-14.89c-5.26-6.47-18.07-9.52-26.22-6.75c-2.65,0.9-5.41,1.52-7.73,3.07c-1.81,1.21-3.43,2.53-4.84,3.96
	c-2.41,2.44-4.24,5.2-5.49,8.26c-0.22,0.55-0.43,1.12-0.61,1.69c-0.2,0.58-0.37,1.17-0.52,1.77c-0.15,0.6-0.28,1.21-0.4,1.83
	c-0.33,1.86-0.5,3.8-0.5,5.83c0,21.29,0,42.58,0.01,63.87v3.24c-0.01,0-0.01,0-0.02,0v0.04c-0.28,0.03-0.55,0.06-0.83,0.09
	c-0.79-4.8-2.69-9.18-4.85-13.45c-3.19-6.3-6.82-12.26-11.57-17.61c-4.42-4.96-7.26-10.91-8.94-17.48
	c-1.71-6.65-2.71-13.41-1.8-20.09c0.16-1.2,0.36-2.39,0.59-3.58c0.12-0.6,0.25-1.2,0.38-1.8c0.17-0.79,0.36-1.57,0.57-2.35
	c0.25-0.96,0.53-1.9,0.83-2.84c0.21-0.65,0.43-1.3,0.67-1.94c0.38-1.06,0.8-2.1,1.25-3.12c0.72-1.64,1.52-3.23,2.42-4.77
	c0.25-0.43,0.51-0.86,0.77-1.28c1.02-1.63,2.14-3.19,3.38-4.69c0.42-0.51,0.85-1.02,1.28-1.52c0.86-1,1.73-1.97,2.64-2.92
	c0.44-0.48,0.9-0.95,1.38-1.42c0.7-0.7,1.41-1.38,2.13-2.05c0.63-0.58,1.28-1.16,1.93-1.71c0.01-0.01,0.01,0,0.01,0
	c4.6-3.9,9.78-7.07,15.8-9.07c13.29-4.43,26.49-4.87,39.52,0.63c10.12,4.28,19.02,10.39,25.01,19.85c4.65,7.32,8.26,15.1,9.35,23.92
	C175.44,103.16,175.45,108.28,174.7,113.2z"/>
</svg>
