<?xml version="1.0" encoding="utf-8"?>
<!-- Generator: Adobe Illustrator 24.3.0, SVG Export Plug-In . SVG Version: 6.00 Build 0)  -->
<svg version="1.1" id="Layer_1" xmlns="http://www.w3.org/2000/svg" xmlns:xlink="http://www.w3.org/1999/xlink" x="0px" y="0px"
	 viewBox="0 0 48 48" style="enable-background:new 0 0 48 48;" xml:space="preserve">
<style type="text/css">
	.st0{fill:url(#SVGID_1_);}
	.st1{fill:#FEE381;}
	.st2{fill:url(#SVGID_2_);stroke:#0E1E43;stroke-miterlimit:10;}
	.st3{fill:url(#SVGID_3_);stroke:#0E1E43;stroke-width:0.1;stroke-miterlimit:10;}
	.st4{fill:#102248;}
	.st5{fill:#F78F27;}
	.st6{fill:#F47421;}
	.st7{fill:#FCB12A;stroke:#FEE014;stroke-width:0.1;stroke-miterlimit:10;}
	.st8{fill:#0E1E43;}
	.st9{fill:#0F2246;stroke:#0D0E1B;stroke-width:0.1;stroke-miterlimit:10;}
	.st10{fill:#FDB526;stroke:#FEE014;stroke-width:0.1;stroke-miterlimit:10;}
	.st11{fill:none;stroke:#0D0E1B;stroke-width:0.1;stroke-miterlimit:10;}
	.st12{fill:none;stroke:#0E1E43;stroke-miterlimit:10;}
	.st13{opacity:0.14;}
	.st14{fill:#0D0E1B;}
	.st15{fill:#F26522;}
	.st16{fill:url(#SVGID_4_);stroke:#0E1E43;stroke-width:0.75;stroke-miterlimit:10;}
	.st17{fill:url(#SVGID_5_);stroke:#0E1E43;stroke-width:0.75;stroke-miterlimit:10;}
	.st18{fill:url(#SVGID_6_);}
	.st19{fill:url(#SVGID_7_);}
	.st20{fill:url(#SVGID_8_);}
	.st21{fill:#FFF7B2;stroke:#FEBB13;stroke-width:5.000000e-02;stroke-miterlimit:10;}
</style>
<linearGradient id="SVGID_1_" gradientUnits="userSpaceOnUse" x1="4.5726" y1="22.254" x2="34.4503" y2="37.382" gradientTransform="matrix(1 0 0 -1 0 48)">
	<stop  offset="0" style="stop-color:#036AB1"/>
	<stop  offset="0.2368" style="stop-color:#0272B4"/>
	<stop  offset="0.7019" style="stop-color:#0089C0"/>
	<stop  offset="1" style="stop-color:#009BC8"/>
</linearGradient>
<path class="st0" d="M34.3,10.8v16H5.1v-16c0-1.3,1-2.3,2.3-2.3H32C33.2,8.5,34.3,9.5,34.3,10.8z"/>
<path class="st1" d="M33.1,25.1h-25c-0.7,0-1.2-0.5-1.2-1.2V11.5c0-0.7,0.5-1.2,1.2-1.2h25c0.7,0,1.2,0.5,1.2,1.2v12.3
	C34.2,24.5,33.7,25.1,33.1,25.1z"/>
<linearGradient id="SVGID_2_" gradientUnits="userSpaceOnUse" x1="12.6923" y1="12.7605" x2="27.2113" y2="12.7605" gradientTransform="matrix(1 0 0 -1 0 48)">
	<stop  offset="0" style="stop-color:#1E4381"/>
	<stop  offset="1" style="stop-color:#046EB7"/>
</linearGradient>
<path class="st2" d="M26.2,36.3H13.7c-0.6,0-1-0.5-1-1l0,0c0-0.6,0.5-1,1-1h12.5c0.6,0,1,0.5,1,1l0,0C27.2,35.8,26.8,36.3,26.2,36.3
	z"/>
<linearGradient id="SVGID_3_" gradientUnits="userSpaceOnUse" x1="4.7778" y1="18.1557" x2="33.1787" y2="20.7904" gradientTransform="matrix(1 0 0 -1 0 48)">
	<stop  offset="0" style="stop-color:#1E4381"/>
	<stop  offset="1" style="stop-color:#046EB7"/>
</linearGradient>
<path class="st3" d="M34.3,26.8V28c0,1.3-1,2.3-2.3,2.3H7.4c-1.3,0-2.3-1-2.3-2.3v-1.2H34.3z"/>
<path class="st4" d="M20.3,16.4c0,1.2-0.5,2.4-1.4,3.1c0,0,0,0,0,0c-0.7,0.6-1.7,1-2.7,1c-1,0-1.9-0.3-2.6-0.9c0,0,0,0,0,0
	c-0.9-0.8-1.5-1.9-1.5-3.2c0-2.3,1.8-4.2,4.1-4.2C18.5,12.3,20.3,14.1,20.3,16.4z"/>
<polygon class="st5" points="24.1,34.2 15.8,34.2 16.2,32.6 23.7,32.6 "/>
<polygon class="st6" points="23.7,32.6 16.2,32.6 16.7,30.3 23.1,30.3 "/>
<path class="st7" d="M18.9,19.6c-0.7,0.6-1.7,1-2.7,1c-1,0-1.9-0.3-2.6-0.9c0.4-0.9,1.4-1.5,2.6-1.5C17.5,18.2,18.5,18.7,18.9,19.6z
	"/>
<g>
	<path class="st8" d="M32,7.9H7.4c-1.6,0-2.9,1.3-2.9,2.9V28c0,1.6,1.3,2.9,2.9,2.9H32c1.6,0,2.9-1.3,2.9-2.9V10.8
		C34.9,9.2,33.6,7.9,32,7.9z M33.6,28c0,0.9-0.8,1.7-1.7,1.7H7.4c-0.9,0-1.7-0.8-1.7-1.7v-0.6h27.9C33.6,27.4,33.6,28,33.6,28z
		 M33.6,26.2H5.7V10.8c0-0.9,0.8-1.7,1.7-1.7H32c0.9,0,1.7,0.8,1.7,1.7V26.2z"/>
</g>
<g>
	<path class="st9" d="M20.5,23.2h-8.8c-0.3,0-0.6-0.3-0.6-0.7c0-0.4,0.3-0.7,0.6-0.7h8.8c0.3,0,0.6,0.3,0.6,0.7
		C21.1,22.9,20.9,23.2,20.5,23.2z"/>
</g>
<ellipse class="st10" cx="16.2" cy="15.4" rx="1.7" ry="1.8"/>
<path class="st11" d="M20.3,16.4c0,1.2-0.5,2.4-1.4,3.1c0,0,0,0,0,0c-0.7,0.6-1.7,1-2.7,1c-1,0-1.9-0.3-2.6-0.9c0,0,0,0,0,0
	c-0.9-0.8-1.5-1.9-1.5-3.2c0-2.3,1.8-4.2,4.1-4.2C18.5,12.3,20.3,14.1,20.3,16.4z"/>
<path class="st12" d="M26.2,36.3H13.7c-0.6,0-1-0.5-1-1l0,0c0-0.6,0.5-1,1-1h12.5c0.6,0,1,0.5,1,1l0,0
	C27.2,35.8,26.8,36.3,26.2,36.3z"/>
<polygon class="st12" points="23.1,30.3 16.7,30.3 15.8,34.2 24.1,34.2 "/>
<g>
	<path class="st8" d="M1.9,44.8V39c0-0.3,0.1-0.5,0.2-0.7c0.1-0.1,0.3-0.2,0.5-0.2c0.2,0,0.4,0.1,0.5,0.2c0.1,0.1,0.2,0.4,0.2,0.7
		v5.8c0,0.3-0.1,0.5-0.2,0.7c-0.1,0.1-0.3,0.2-0.5,0.2c-0.2,0-0.4-0.1-0.5-0.2C1.9,45.3,1.9,45.1,1.9,44.8z"/>
	<path class="st8" d="M8.7,44.9v-0.1c-0.2,0.2-0.4,0.4-0.5,0.5c-0.2,0.1-0.4,0.2-0.6,0.3c-0.2,0.1-0.4,0.1-0.7,0.1
		c-0.3,0-0.6-0.1-0.9-0.2c-0.3-0.1-0.5-0.3-0.7-0.6c-0.2-0.3-0.4-0.6-0.5-0.9c-0.1-0.3-0.2-0.7-0.2-1.1c0-0.9,0.2-1.5,0.6-2
		c0.4-0.5,1-0.7,1.6-0.7c0.4,0,0.7,0.1,1,0.2s0.5,0.3,0.8,0.6v-2c0-0.3,0.1-0.5,0.2-0.6s0.3-0.2,0.5-0.2c0.2,0,0.4,0.1,0.5,0.2
		c0.1,0.1,0.2,0.3,0.2,0.6v6.1c0,0.3-0.1,0.5-0.2,0.6c-0.1,0.1-0.3,0.2-0.5,0.2c-0.2,0-0.3-0.1-0.5-0.2C8.8,45.3,8.7,45.1,8.7,44.9z
		 M6,42.9c0,0.4,0.1,0.7,0.2,1s0.3,0.5,0.5,0.6c0.2,0.1,0.4,0.2,0.7,0.2c0.2,0,0.5-0.1,0.7-0.2c0.2-0.1,0.4-0.3,0.5-0.6
		c0.1-0.3,0.2-0.6,0.2-1c0-0.4-0.1-0.7-0.2-0.9c-0.1-0.3-0.3-0.5-0.5-0.6c-0.2-0.1-0.4-0.2-0.7-0.2s-0.5,0.1-0.7,0.2
		c-0.2,0.1-0.3,0.3-0.5,0.6C6,42.2,6,42.5,6,42.9z"/>
	<path class="st8" d="M15.2,43.2h-2.7c0,0.3,0.1,0.6,0.2,0.8c0.1,0.2,0.3,0.4,0.5,0.5c0.2,0.1,0.4,0.2,0.7,0.2c0.2,0,0.3,0,0.4-0.1
		c0.1,0,0.3-0.1,0.4-0.2c0.1-0.1,0.2-0.2,0.3-0.3c0.1-0.1,0.2-0.2,0.4-0.4c0.1-0.1,0.2-0.1,0.3-0.1c0.1,0,0.3,0,0.3,0.1
		c0.1,0.1,0.1,0.2,0.1,0.3c0,0.1,0,0.3-0.1,0.4c-0.1,0.2-0.2,0.3-0.4,0.5c-0.2,0.1-0.4,0.3-0.7,0.4c-0.3,0.1-0.6,0.1-1,0.1
		c-0.9,0-1.6-0.2-2.1-0.8c-0.5-0.5-0.7-1.2-0.7-2c0-0.4,0.1-0.8,0.2-1.1c0.1-0.3,0.3-0.6,0.5-0.9c0.2-0.2,0.5-0.4,0.9-0.6
		s0.7-0.2,1.1-0.2c0.5,0,1,0.1,1.4,0.3c0.4,0.2,0.7,0.5,0.9,0.9s0.3,0.7,0.3,1.1c0,0.3-0.1,0.6-0.3,0.7
		C15.8,43.2,15.5,43.2,15.2,43.2z M12.5,42.5H15c0-0.5-0.2-0.8-0.4-1.1s-0.5-0.3-0.9-0.3c-0.3,0-0.6,0.1-0.8,0.4
		C12.7,41.6,12.5,42,12.5,42.5z"/>
	<path class="st8" d="M20.9,44.9c-0.3,0.3-0.7,0.4-1,0.6c-0.3,0.1-0.7,0.2-1,0.2c-0.3,0-0.7-0.1-0.9-0.2c-0.3-0.1-0.5-0.3-0.6-0.6
		c-0.1-0.2-0.2-0.5-0.2-0.8c0-0.4,0.1-0.7,0.4-1c0.2-0.3,0.6-0.4,1-0.5c0.1,0,0.3-0.1,0.6-0.1s0.6-0.1,0.9-0.2
		c0.2-0.1,0.5-0.1,0.8-0.2c0-0.4-0.1-0.6-0.2-0.8c-0.1-0.2-0.4-0.2-0.8-0.2c-0.3,0-0.6,0-0.8,0.1s-0.3,0.2-0.4,0.4
		c-0.1,0.2-0.2,0.3-0.3,0.4s-0.2,0.1-0.3,0.1c-0.1,0-0.3,0-0.4-0.1s-0.2-0.2-0.2-0.4c0-0.2,0.1-0.5,0.3-0.7c0.2-0.2,0.4-0.4,0.8-0.6
		c0.4-0.1,0.8-0.2,1.4-0.2c0.6,0,1.1,0.1,1.4,0.2c0.3,0.1,0.6,0.4,0.7,0.7c0.1,0.3,0.2,0.7,0.2,1.2c0,0.3,0,0.6,0,0.8s0,0.5,0,0.7
		c0,0.3,0,0.5,0.1,0.8c0.1,0.3,0.1,0.5,0.1,0.5c0,0.1-0.1,0.3-0.2,0.4c-0.1,0.1-0.3,0.2-0.4,0.2c-0.1,0-0.3-0.1-0.4-0.2
		C21.2,45.3,21.1,45.2,20.9,44.9z M20.8,42.9c-0.2,0.1-0.5,0.1-0.9,0.2c-0.4,0.1-0.6,0.1-0.8,0.2c-0.1,0-0.3,0.1-0.4,0.2
		c-0.1,0.1-0.2,0.3-0.2,0.5c0,0.2,0.1,0.4,0.2,0.5c0.2,0.1,0.4,0.2,0.6,0.2c0.3,0,0.5-0.1,0.7-0.2c0.2-0.1,0.4-0.3,0.5-0.5
		c0.1-0.2,0.2-0.5,0.2-1C20.8,43.1,20.8,42.9,20.8,42.9z"/>
	<path class="st8" d="M26.5,42.7h-1.4v2.1c0,0.3-0.1,0.5-0.2,0.7c-0.1,0.2-0.3,0.2-0.5,0.2c-0.2,0-0.4-0.1-0.5-0.2
		c-0.1-0.1-0.2-0.4-0.2-0.7v-5.7c0-0.3,0.1-0.6,0.2-0.7c0.1-0.1,0.4-0.2,0.7-0.2h1.9c0.6,0,1,0,1.3,0.1c0.3,0.1,0.6,0.2,0.8,0.4
		c0.2,0.2,0.4,0.4,0.5,0.7s0.2,0.6,0.2,0.9c0,0.7-0.2,1.3-0.7,1.7C28.1,42.5,27.4,42.7,26.5,42.7z M26.2,39.3h-1v2.2h1
		c0.3,0,0.6,0,0.9-0.1c0.2-0.1,0.4-0.2,0.5-0.4c0.1-0.2,0.2-0.4,0.2-0.7c0-0.3-0.1-0.6-0.3-0.8C27.3,39.4,26.8,39.3,26.2,39.3z"/>
	<path class="st8" d="M33.5,44.9c-0.3,0.3-0.7,0.4-1,0.6c-0.3,0.1-0.7,0.2-1,0.2c-0.3,0-0.7-0.1-0.9-0.2c-0.3-0.1-0.5-0.3-0.6-0.6
		c-0.1-0.2-0.2-0.5-0.2-0.8c0-0.4,0.1-0.7,0.4-1c0.2-0.3,0.6-0.4,1-0.5c0.1,0,0.3-0.1,0.6-0.1c0.3-0.1,0.6-0.1,0.9-0.2
		c0.2-0.1,0.5-0.1,0.8-0.2c0-0.4-0.1-0.6-0.2-0.8c-0.1-0.2-0.4-0.2-0.8-0.2c-0.3,0-0.6,0-0.8,0.1s-0.3,0.2-0.4,0.4
		C31,41.8,30.9,42,30.9,42c0,0.1-0.2,0.1-0.3,0.1c-0.1,0-0.3,0-0.4-0.1S30,41.8,30,41.6c0-0.2,0.1-0.5,0.3-0.7s0.4-0.4,0.8-0.6
		c0.4-0.1,0.8-0.2,1.4-0.2c0.6,0,1.1,0.1,1.4,0.2c0.3,0.1,0.6,0.4,0.7,0.7c0.1,0.3,0.2,0.7,0.2,1.2c0,0.3,0,0.6,0,0.8s0,0.5,0,0.7
		c0,0.3,0,0.5,0.1,0.8c0.1,0.3,0.1,0.5,0.1,0.5c0,0.1-0.1,0.3-0.2,0.4c-0.1,0.1-0.3,0.2-0.4,0.2c-0.1,0-0.3-0.1-0.4-0.2
		S33.7,45.2,33.5,44.9z M33.4,42.9c-0.2,0.1-0.5,0.1-0.9,0.2s-0.6,0.1-0.8,0.2c-0.1,0-0.3,0.1-0.4,0.2c-0.1,0.1-0.2,0.3-0.2,0.5
		c0,0.2,0.1,0.4,0.2,0.5s0.4,0.2,0.6,0.2c0.3,0,0.5-0.1,0.8-0.2c0.2-0.1,0.4-0.3,0.5-0.5c0.1-0.2,0.2-0.5,0.2-1L33.4,42.9L33.4,42.9
		z"/>
	<path class="st8" d="M40.6,43.9c0,0.4-0.1,0.7-0.3,1c-0.2,0.3-0.5,0.5-0.8,0.6c-0.4,0.1-0.8,0.2-1.3,0.2c-0.5,0-0.9-0.1-1.3-0.2
		s-0.6-0.3-0.8-0.6c-0.2-0.2-0.2-0.5-0.2-0.7c0-0.1,0-0.3,0.2-0.4c0.1-0.1,0.2-0.2,0.4-0.2c0.1,0,0.3,0,0.3,0.1
		c0.1,0.1,0.1,0.2,0.2,0.3c0.1,0.2,0.3,0.4,0.5,0.5c0.2,0.1,0.5,0.2,0.8,0.2c0.3,0,0.5-0.1,0.7-0.2c0.2-0.1,0.3-0.3,0.3-0.4
		c0-0.2-0.1-0.4-0.3-0.5c-0.2-0.1-0.5-0.2-0.9-0.3c-0.5-0.1-0.9-0.2-1.2-0.4c-0.3-0.1-0.5-0.3-0.7-0.5c-0.2-0.2-0.3-0.5-0.3-0.8
		c0-0.3,0.1-0.5,0.2-0.8c0.2-0.2,0.4-0.4,0.7-0.6s0.7-0.2,1.2-0.2c0.4,0,0.7,0,1,0.1s0.5,0.2,0.7,0.3c0.2,0.1,0.3,0.3,0.4,0.4
		c0.1,0.1,0.1,0.3,0.1,0.4c0,0.2,0,0.3-0.2,0.4c-0.1,0.1-0.3,0.2-0.5,0.2c-0.1,0-0.3,0-0.4-0.1c-0.1-0.1-0.2-0.2-0.3-0.4
		c-0.1-0.1-0.2-0.2-0.4-0.3S38.3,41,38.1,41c-0.2,0-0.5,0-0.6,0.2c-0.2,0.1-0.2,0.2-0.2,0.4c0,0.1,0.1,0.3,0.2,0.4
		c0.1,0.1,0.3,0.2,0.5,0.2c0.2,0.1,0.5,0.1,0.8,0.2c0.4,0.1,0.8,0.2,1,0.4c0.3,0.1,0.5,0.3,0.6,0.5C40.5,43.4,40.6,43.6,40.6,43.9z"
		/>
	<path class="st8" d="M46.1,43.9c0,0.4-0.1,0.7-0.3,1c-0.2,0.3-0.5,0.5-0.8,0.6s-0.8,0.2-1.3,0.2c-0.5,0-0.9-0.1-1.3-0.2
		s-0.6-0.3-0.8-0.6c-0.2-0.2-0.2-0.5-0.2-0.7c0-0.1,0-0.3,0.2-0.4c0.1-0.1,0.2-0.2,0.4-0.2c0.1,0,0.3,0,0.3,0.1
		c0.1,0.1,0.1,0.2,0.2,0.3c0.1,0.2,0.3,0.4,0.5,0.5c0.2,0.1,0.5,0.2,0.8,0.2c0.3,0,0.5-0.1,0.7-0.2s0.3-0.3,0.3-0.4
		c0-0.2-0.1-0.4-0.3-0.5c-0.2-0.1-0.5-0.2-0.9-0.3c-0.5-0.1-0.9-0.2-1.2-0.4c-0.3-0.1-0.5-0.3-0.7-0.5c-0.2-0.2-0.3-0.5-0.3-0.8
		c0-0.3,0.1-0.5,0.2-0.8c0.2-0.2,0.4-0.4,0.7-0.6s0.7-0.2,1.2-0.2c0.4,0,0.7,0,1,0.1c0.3,0.1,0.5,0.2,0.7,0.3
		c0.2,0.1,0.3,0.3,0.4,0.4c0.1,0.1,0.1,0.3,0.1,0.4c0,0.2,0,0.3-0.2,0.4c-0.1,0.1-0.3,0.2-0.4,0.2c-0.1,0-0.3,0-0.4-0.1
		c-0.1-0.1-0.2-0.2-0.3-0.4c-0.1-0.1-0.2-0.2-0.4-0.3C44.1,41,43.9,41,43.6,41c-0.2,0-0.5,0-0.6,0.2c-0.2,0.1-0.2,0.2-0.2,0.4
		c0,0.1,0.1,0.3,0.2,0.4c0.1,0.1,0.3,0.2,0.5,0.2c0.2,0.1,0.5,0.1,0.8,0.2c0.4,0.1,0.8,0.2,1,0.4c0.3,0.1,0.5,0.3,0.6,0.5
		C46.1,43.4,46.1,43.6,46.1,43.9z"/>
</g>
<g class="st13">
	<path class="st14" d="M42.4,10.4v0.1c0,1.8-0.6,3.5-1.7,4.9l-0.2,0.2c-0.1,0.1-0.1,0.1-0.2,0.2c-0.5,0.6-0.9,1.3-1.2,2
		c-0.3,0.7-0.5,1.4-0.6,2.2c0,0.4-0.3,0.8-0.7,1c0,0,0.1,0.1,0.1,0.1c0.1,0.1,0.1,0.3,0.2,0.5c0,0.1,0,0.1,0,0.2
		c0,0.4-0.2,0.8-0.4,1c0.1,0.1,0.2,0.2,0.2,0.3c0.1,0.1,0.1,0.3,0.2,0.5c0,0.1,0,0.1,0,0.2c0,0.7-0.6,1.4-1.3,1.5
		c-0.1,0.7-0.5,1.4-1.2,1.7c-0.2,0.1-0.5,0.2-0.8,0.3c-0.1,0-0.2,0-0.3,0h-0.2c-0.9,0-1.7-0.5-2-1.2c-0.1-0.2-0.2-0.5-0.2-0.8
		c-0.7-0.1-1.3-0.7-1.3-1.5c0-0.4,0.1-0.7,0.4-1c-0.3-0.3-0.4-0.6-0.4-1c0-0.3,0.1-0.6,0.2-0.8c-0.4-0.2-0.7-0.5-0.7-1
		c-0.1-0.8-0.3-1.5-0.6-2.2c-0.3-0.7-0.7-1.5-1.2-2.2l-0.2-0.2c-1.1-1.4-1.7-3.1-1.7-4.9c0-0.5,0-1,0.1-1.5c0.1-0.4,0.2-0.8,0.3-1.2
		h0.8c0.7-2.4,2.5-4.2,4.8-5.1c0.6-0.1,1.2-0.2,1.8-0.2c2.8,0,5.2,1.5,6.6,3.6C41.9,7.4,42.3,8.9,42.4,10.4z"/>
</g>
<path class="st15" d="M35.5,26.7h-0.2c-1,0-1.9-0.8-1.9-1.9l0,0h4l0,0C37.3,25.8,36.5,26.7,35.5,26.7z"/>
<linearGradient id="SVGID_4_" gradientUnits="userSpaceOnUse" x1="32.039" y1="23.5414" x2="38.7808" y2="25.1979" gradientTransform="matrix(1 0 0 -1 0 48)">
	<stop  offset="0" style="stop-color:#0061AA"/>
	<stop  offset="0.1842" style="stop-color:#0067AD"/>
	<stop  offset="0.5222" style="stop-color:#0078B8"/>
	<stop  offset="0.8516" style="stop-color:#008DC5"/>
</linearGradient>
<path class="st16" d="M37.6,24.7h-4.5c-0.6,0-1-0.4-1-1l0,0c0-0.6,0.4-1,1-1h4.5c0.6,0,1,0.4,1,1l0,0C38.6,24.2,38.1,24.7,37.6,24.7
	z"/>
<linearGradient id="SVGID_5_" gradientUnits="userSpaceOnUse" x1="32.0035" y1="25.777" x2="38.5855" y2="26.9541" gradientTransform="matrix(1 0 0 -1 0 48)">
	<stop  offset="0" style="stop-color:#0061AA"/>
	<stop  offset="0.2289" style="stop-color:#006AAF"/>
	<stop  offset="0.6837" style="stop-color:#0081BD"/>
	<stop  offset="0.882" style="stop-color:#008DC5"/>
</linearGradient>
<path class="st17" d="M37.6,22.6h-4.5c-0.6,0-1-0.4-1-1l0,0c0-0.6,0.4-1,1-1h4.5c0.6,0,1,0.4,1,1l0,0C38.6,22.2,38.1,22.6,37.6,22.6
	z"/>
<g>
	<path class="st8" d="M35.3,2.3c-1,0-1.9,0.2-2.7,0.5c-2.3,0.8-4.1,2.7-4.8,5.1c-0.1,0.4-0.2,0.8-0.3,1.2c-0.1,0.4-0.1,0.8-0.1,1.2
		c0,1.8,0.6,3.5,1.7,4.9l0.2,0.2c0.5,0.7,0.9,1.5,1.2,2.2c0.3,0.7,0.5,1.5,0.6,2.2c0.1,0.4,0.4,0.8,0.7,1c-0.1,0.2-0.2,0.5-0.2,0.8
		c0,0.4,0.1,0.8,0.4,1c-0.3,0.3-0.4,0.6-0.4,1c0,0.8,0.6,1.4,1.3,1.5c0,0.4,0.2,0.8,0.4,1.1c0.3,0.5,0.9,0.8,1.5,0.9
		c0.1,0,0.2,0,0.3,0h0.2c0.1,0,0.1,0,0.2,0c1.1-0.1,2-0.9,2.1-2c0.7-0.1,1.3-0.7,1.3-1.5c0-0.4-0.1-0.7-0.4-1c0.2-0.3,0.4-0.6,0.4-1
		c0-0.3-0.1-0.6-0.3-0.8c0.4-0.2,0.6-0.5,0.7-1c0.1-0.8,0.3-1.5,0.6-2.2c0.3-0.7,0.7-1.4,1.2-2c0.1-0.1,0.1-0.1,0.2-0.2l0.2-0.2
		c1.1-1.4,1.7-3.1,1.7-4.9C43.3,5.9,39.7,2.3,35.3,2.3z M35.5,26.2h-0.2c-0.1,0-0.2,0-0.3,0c-0.5-0.1-0.8-0.4-1-0.9h2.9
		C36.6,25.8,36.1,26.2,35.5,26.2z M38.1,23.7c0,0.3-0.3,0.5-0.5,0.5h-4.5c-0.3,0-0.5-0.2-0.5-0.5c0-0.3,0.2-0.5,0.5-0.5h4.5
		c0.1,0,0.3,0.1,0.4,0.1C38,23.3,38.1,23.5,38.1,23.7C38.1,23.7,38.1,23.7,38.1,23.7z M38.1,21.7c0,0.3-0.3,0.5-0.5,0.5h-4.5
		c-0.3,0-0.5-0.2-0.5-0.5c0-0.3,0.2-0.5,0.5-0.5h4.5c0.1,0,0.3,0,0.4,0.1C38,21.3,38.1,21.5,38.1,21.7
		C38.1,21.6,38.1,21.7,38.1,21.7z M40.8,14.7l-0.1,0.1c-0.1,0.1-0.2,0.2-0.2,0.3c-0.5,0.7-1,1.4-1.3,2.2c-0.3,0.7-0.5,1.5-0.6,2.4
		c0,0.2-0.1,0.3-0.3,0.3h-5.9c-0.1,0-0.3-0.1-0.3-0.3c-0.1-0.9-0.4-1.7-0.7-2.4c-0.3-0.8-0.8-1.6-1.4-2.4l-0.2-0.2
		c-1-1.3-1.5-2.8-1.5-4.4c0-0.4,0-0.8,0.1-1.2c0.1-0.4,0.2-0.8,0.3-1.2c1-2.7,3.6-4.6,6.6-4.6c2.4,0,4.5,1.2,5.7,3
		c0.8,1.2,1.3,2.6,1.3,4.1v0.1C42.3,12,41.8,13.4,40.8,14.7z"/>
</g>
<linearGradient id="SVGID_6_" gradientUnits="userSpaceOnUse" x1="38.6173" y1="43.0482" x2="38.6753" y2="28.1406" gradientTransform="matrix(1 0 0 -1 0 48)">
	<stop  offset="0" style="stop-color:#FCEA7C"/>
	<stop  offset="0.1106" style="stop-color:#FCE574"/>
	<stop  offset="0.2812" style="stop-color:#FDD85D"/>
	<stop  offset="0.4895" style="stop-color:#FDC236"/>
	<stop  offset="0.5435" style="stop-color:#FEBC2A"/>
	<stop  offset="0.5789" style="stop-color:#FCB42A"/>
	<stop  offset="0.6978" style="stop-color:#F89B29"/>
	<stop  offset="0.8108" style="stop-color:#F68A28"/>
	<stop  offset="0.9145" style="stop-color:#F57F28"/>
	<stop  offset="1" style="stop-color:#F47C27"/>
</linearGradient>
<path class="st18" d="M42.4,10.3c0,1.6-0.5,3.1-1.5,4.4l-0.1,0.1c-0.1,0.1-0.2,0.2-0.2,0.3c-0.5,0.7-1,1.4-1.3,2.2
	c-0.3,0.7-0.5,1.5-0.6,2.4c0,0.2-0.1,0.3-0.3,0.3h-0.6c0-0.1-0.1-0.1-0.1-0.1c0,0,0-0.1,0.1-0.1c0.1-0.9,0.3-1.7,0.6-2.4
	c0.3-0.8,0.8-1.5,1.3-2.2c0.1-0.1,0.1-0.2,0.2-0.3l0.1-0.1c1-1.3,1.5-2.8,1.5-4.4c0-3.7-2.9-6.8-6.5-7c0.1,0,0.3,0,0.5,0
	C39.2,3.2,42.4,6.4,42.4,10.3z"/>
<radialGradient id="SVGID_7_" cx="32.4503" cy="37.5991" r="8.6968" fx="31.7574" fy="37.3249" gradientTransform="matrix(-0.441 0.8975 0.8716 0.4283 19.5134 -36.3005)" gradientUnits="userSpaceOnUse">
	<stop  offset="0.2973" style="stop-color:#FFD31E"/>
	<stop  offset="0.6262" style="stop-color:#F9AA28"/>
	<stop  offset="0.8698" style="stop-color:#F79129"/>
	<stop  offset="1" style="stop-color:#F68829"/>
</radialGradient>
<path class="st19" d="M41.4,10.3c0,1.6-0.5,3.1-1.5,4.4l-0.1,0.1c-0.1,0.1-0.2,0.2-0.2,0.3c-0.5,0.7-1,1.4-1.3,2.2
	c-0.3,0.7-0.5,1.5-0.6,2.4c0,0.1,0,0.1-0.1,0.1c-0.5-0.1-2-0.4-2.8-0.6c-0.4-0.1-0.7-0.4-0.7-0.7c-0.2-0.8-0.7-2.3-2.7-4.6
	c-2.8-3.4-1.4-7.7-1.3-8.1c1.2-1.4,3-2.4,4.9-2.5C38.5,3.5,41.4,6.6,41.4,10.3z"/>
<linearGradient id="SVGID_8_" gradientUnits="userSpaceOnUse" x1="28.9248" y1="34.9604" x2="35.9863" y2="35.1928" gradientTransform="matrix(1 0 0 -1 0 48)">
	<stop  offset="0" style="stop-color:#F15928"/>
	<stop  offset="1" style="stop-color:#F26825"/>
</linearGradient>
<path class="st20" d="M37.7,20h-5.4c-0.1,0-0.3-0.1-0.3-0.3c-0.1-0.9-0.4-1.7-0.7-2.4c-0.3-0.8-0.8-1.6-1.4-2.4l-0.2-0.2
	c-1-1.3-1.5-2.8-1.5-4.4c0-1.7,0.6-3.3,1.6-4.5c-0.1,0.4-1.6,4.7,1.3,8.1c2,2.3,2.6,3.8,2.7,4.6c0.1,0.4,0.4,0.6,0.7,0.7
	c0.9,0.2,2.3,0.6,2.8,0.6C37.6,19.9,37.7,19.9,37.7,20z"/>
<g>
	<path class="st21" d="M39.5,9.6c-0.1,0-0.3-0.1-0.3-0.2c-0.3-1.5-1.8-2.6-1.8-2.7c-0.1-0.1-0.2-0.3-0.1-0.4
		c0.1-0.1,0.3-0.2,0.4-0.1c0.1,0,1.8,1.2,2.1,3.1C39.9,9.4,39.8,9.6,39.5,9.6C39.6,9.6,39.6,9.6,39.5,9.6z"/>
</g>
</svg>
