<?xml version="1.0" encoding="utf-8"?>
<!-- Generator: Adobe Illustrator 24.3.0, SVG Export Plug-In . SVG Version: 6.00 Build 0)  -->
<svg version="1.1" id="Layer_1" xmlns="http://www.w3.org/2000/svg" xmlns:xlink="http://www.w3.org/1999/xlink" x="0px" y="0px"
	 viewBox="0 0 48 48" style="enable-background:new 0 0 48 48;" xml:space="preserve">
<style type="text/css">
	.st0{fill:url(#SVGID_1_);}
	.st1{fill:#FEE381;}
	.st2{fill:url(#SVGID_2_);stroke:#0E1E43;stroke-miterlimit:10;}
	.st3{fill:url(#SVGID_3_);stroke:#0E1E43;stroke-width:0.1;stroke-miterlimit:10;}
	.st4{fill:#102248;}
	.st5{fill:#F78F27;}
	.st6{fill:#F47421;}
	.st7{fill:#FCB12A;stroke:#FEE014;stroke-width:0.1;stroke-miterlimit:10;}
	.st8{fill:#0E1E43;}
	.st9{fill:#0F2246;stroke:#0D0E1B;stroke-width:0.1;stroke-miterlimit:10;}
	.st10{fill:#FDB526;stroke:#FEE014;stroke-width:0.1;stroke-miterlimit:10;}
	.st11{fill:none;stroke:#0D0E1B;stroke-width:0.1;stroke-miterlimit:10;}
	.st12{fill:none;stroke:#0E1E43;stroke-miterlimit:10;}
	.st13{opacity:0.14;}
	.st14{fill:#0D0E1B;}
	.st15{fill:#F26522;}
	.st16{fill:url(#SVGID_4_);stroke:#0E1E43;stroke-width:0.75;stroke-miterlimit:10;}
	.st17{fill:url(#SVGID_5_);stroke:#0E1E43;stroke-width:0.75;stroke-miterlimit:10;}
	.st18{fill:url(#SVGID_6_);}
	.st19{fill:url(#SVGID_7_);}
	.st20{fill:url(#SVGID_8_);}
	.st21{fill:#FFF7B2;stroke:#FEBB13;stroke-width:0.05;stroke-miterlimit:10;}
</style>
<linearGradient id="SVGID_1_" gradientUnits="userSpaceOnUse" x1="8.7412" y1="24.9632" x2="32.8385" y2="12.762">
	<stop  offset="0" style="stop-color:#036AB1"/>
	<stop  offset="0.2368" style="stop-color:#0272B4"/>
	<stop  offset="0.7019" style="stop-color:#0089C0"/>
	<stop  offset="1" style="stop-color:#009BC8"/>
</linearGradient>
<path class="st0" d="M32.69,12.91v12.9H9.17v-12.9c0-1.02,0.83-1.85,1.85-1.85h19.82C31.86,11.06,32.69,11.89,32.69,12.91z"/>
<path class="st1" d="M31.72,24.41H11.59c-0.53,0-0.95-0.43-0.95-0.95v-9.95c0-0.53,0.43-0.95,0.95-0.95h20.13
	c0.53,0,0.95,0.43,0.95,0.95v9.95C32.67,23.98,32.25,24.41,31.72,24.41z"/>
<linearGradient id="SVGID_2_" gradientUnits="userSpaceOnUse" x1="15.2923" y1="32.6211" x2="27.0046" y2="32.6211">
	<stop  offset="0" style="stop-color:#1E4381"/>
	<stop  offset="1" style="stop-color:#046EB7"/>
</linearGradient>
<path class="st2" d="M26.17,33.45H16.12c-0.46,0-0.83-0.37-0.83-0.83l0,0c0-0.46,0.37-0.83,0.83-0.83h10.05
	c0.46,0,0.83,0.37,0.83,0.83l0,0C27,33.08,26.63,33.45,26.17,33.45z"/>
<linearGradient id="SVGID_3_" gradientUnits="userSpaceOnUse" x1="8.9067" y1="28.2686" x2="31.8129" y2="26.1436">
	<stop  offset="0" style="stop-color:#1E4381"/>
	<stop  offset="1" style="stop-color:#046EB7"/>
</linearGradient>
<path class="st3" d="M32.69,25.81v1c0,1.02-0.83,1.85-1.85,1.85H11.02c-1.02,0-1.85-0.83-1.85-1.85v-1H32.69z"/>
<path class="st4" d="M21.43,17.44c0,1-0.44,1.9-1.13,2.52c-0.01,0.01-0.03,0.02-0.04,0.03c-0.58,0.5-1.34,0.8-2.15,0.8
	c-0.79,0-1.54-0.28-2.1-0.76C16,20.02,15.98,20.01,15.97,20c-0.73-0.62-1.18-1.53-1.18-2.56c0-1.85,1.48-3.35,3.32-3.35
	C19.94,14.09,21.43,15.59,21.43,17.44z"/>
<polygon class="st5" points="24.52,31.79 17.77,31.79 18.09,30.52 24.2,30.52 "/>
<polygon class="st6" points="24.2,30.52 18.09,30.52 18.56,28.66 23.72,28.66 "/>
<path class="st7" d="M20.28,19.99c-0.58,0.5-1.34,0.8-2.15,0.8c-0.79,0-1.54-0.28-2.1-0.76c0.31-0.7,1.15-1.19,2.13-1.19
	C19.13,18.84,19.95,19.31,20.28,19.99z"/>
<g>
	<path class="st8" d="M30.84,10.56H11.02c-1.3,0-2.35,1.05-2.35,2.35v13.9c0,1.3,1.05,2.35,2.35,2.35h19.82
		c1.3,0,2.35-1.05,2.35-2.35v-13.9C33.19,11.61,32.14,10.56,30.84,10.56z M32.19,26.81c0,0.74-0.61,1.35-1.35,1.35H11.02
		c-0.74,0-1.35-0.61-1.35-1.35v-0.5h22.52V26.81z M32.19,25.31H9.67v-12.4c0-0.74,0.61-1.35,1.35-1.35h19.82
		c0.74,0,1.35,0.61,1.35,1.35V25.31z"/>
</g>
<g>
	<path class="st9" d="M21.61,22.88h-7.09c-0.27,0-0.5-0.24-0.5-0.55s0.22-0.55,0.5-0.55h7.09c0.27,0,0.5,0.24,0.5,0.55
		S21.89,22.88,21.61,22.88z"/>
</g>
<ellipse class="st10" cx="18.15" cy="16.65" rx="1.41" ry="1.47"/>
<path class="st11" d="M21.43,17.44c0,1-0.44,1.9-1.13,2.52c-0.01,0.01-0.03,0.02-0.04,0.03c-0.58,0.5-1.34,0.8-2.15,0.8
	c-0.79,0-1.54-0.28-2.1-0.76C16,20.02,15.98,20.01,15.97,20c-0.73-0.62-1.18-1.53-1.18-2.56c0-1.85,1.48-3.35,3.32-3.35
	C19.94,14.09,21.43,15.59,21.43,17.44z"/>
<path class="st12" d="M26.17,33.45H16.12c-0.46,0-0.83-0.37-0.83-0.83l0,0c0-0.46,0.37-0.83,0.83-0.83h10.05
	c0.46,0,0.83,0.37,0.83,0.83l0,0C27,33.08,26.63,33.45,26.17,33.45z"/>
<polygon class="st12" points="23.72,28.66 18.56,28.66 17.77,31.79 24.52,31.79 "/>
<g>
	<path class="st8" d="M6.56,40.31v-4.68c0-0.24,0.06-0.43,0.17-0.55s0.25-0.18,0.43-0.18c0.18,0,0.33,0.06,0.44,0.18
		c0.11,0.12,0.17,0.3,0.17,0.55v4.68c0,0.25-0.06,0.43-0.17,0.55c-0.11,0.12-0.26,0.18-0.44,0.18c-0.17,0-0.31-0.06-0.43-0.18
		C6.61,40.73,6.56,40.55,6.56,40.31z"/>
	<path class="st8" d="M12.06,40.41V40.3c-0.15,0.17-0.29,0.31-0.44,0.42c-0.14,0.11-0.3,0.19-0.47,0.24
		c-0.17,0.05-0.35,0.08-0.55,0.08c-0.26,0-0.51-0.06-0.73-0.17c-0.23-0.11-0.42-0.27-0.58-0.48s-0.29-0.45-0.37-0.73
		c-0.08-0.28-0.13-0.58-0.13-0.91c0-0.69,0.17-1.23,0.51-1.62s0.78-0.58,1.33-0.58c0.32,0,0.59,0.05,0.81,0.16
		c0.22,0.11,0.43,0.28,0.64,0.5v-1.63c0-0.23,0.05-0.4,0.14-0.51s0.22-0.17,0.39-0.17s0.3,0.05,0.39,0.16s0.14,0.26,0.14,0.47v4.88
		c0,0.21-0.05,0.37-0.15,0.47s-0.22,0.16-0.38,0.16c-0.15,0-0.28-0.05-0.37-0.16S12.06,40.61,12.06,40.41z M9.88,38.79
		c0,0.3,0.05,0.55,0.14,0.77s0.22,0.37,0.38,0.48c0.16,0.11,0.34,0.16,0.53,0.16c0.19,0,0.37-0.05,0.53-0.15
		c0.16-0.1,0.29-0.26,0.38-0.46c0.1-0.21,0.14-0.47,0.14-0.78c0-0.29-0.05-0.55-0.14-0.76c-0.1-0.21-0.23-0.37-0.39-0.49
		c-0.16-0.11-0.34-0.17-0.54-0.17c-0.2,0-0.38,0.06-0.54,0.17c-0.16,0.11-0.28,0.28-0.37,0.49C9.93,38.25,9.88,38.5,9.88,38.79z"/>
	<path class="st8" d="M17.3,39.06h-2.16c0,0.25,0.05,0.47,0.15,0.66c0.1,0.19,0.23,0.34,0.39,0.43c0.16,0.1,0.34,0.15,0.54,0.15
		c0.13,0,0.25-0.02,0.36-0.05c0.11-0.03,0.22-0.08,0.32-0.15c0.1-0.07,0.2-0.14,0.28-0.21c0.09-0.08,0.2-0.18,0.34-0.31
		c0.06-0.05,0.14-0.07,0.24-0.07c0.11,0,0.21,0.03,0.28,0.09c0.07,0.06,0.11,0.15,0.11,0.26c0,0.1-0.04,0.22-0.12,0.35
		c-0.08,0.13-0.2,0.26-0.35,0.38c-0.16,0.12-0.36,0.22-0.6,0.31c-0.24,0.08-0.51,0.12-0.82,0.12c-0.71,0-1.26-0.2-1.66-0.61
		C14.2,40.03,14,39.48,14,38.79c0-0.33,0.05-0.63,0.15-0.91s0.24-0.52,0.42-0.72c0.19-0.2,0.42-0.35,0.69-0.46s0.57-0.16,0.91-0.16
		c0.43,0,0.8,0.09,1.11,0.27c0.31,0.18,0.54,0.42,0.69,0.71c0.15,0.29,0.23,0.58,0.23,0.88c0,0.28-0.08,0.46-0.24,0.54
		S17.58,39.06,17.3,39.06z M15.13,38.44h2c-0.03-0.38-0.13-0.66-0.31-0.85s-0.41-0.28-0.7-0.28c-0.28,0-0.5,0.1-0.68,0.29
		C15.28,37.78,15.17,38.06,15.13,38.44z"/>
	<path class="st8" d="M21.93,40.42c-0.27,0.21-0.53,0.36-0.78,0.47c-0.25,0.1-0.53,0.16-0.84,0.16c-0.28,0-0.53-0.06-0.75-0.17
		c-0.21-0.11-0.38-0.26-0.5-0.46c-0.12-0.19-0.17-0.4-0.17-0.62c0-0.3,0.1-0.56,0.29-0.77c0.19-0.21,0.45-0.36,0.79-0.43
		c0.07-0.02,0.24-0.05,0.52-0.11s0.52-0.11,0.71-0.16c0.2-0.05,0.41-0.1,0.65-0.17c-0.01-0.29-0.07-0.51-0.18-0.64
		c-0.1-0.14-0.32-0.2-0.65-0.2c-0.28,0-0.49,0.04-0.63,0.12c-0.14,0.08-0.26,0.2-0.36,0.35s-0.17,0.26-0.21,0.31
		c-0.04,0.05-0.13,0.08-0.27,0.08c-0.12,0-0.23-0.04-0.32-0.12c-0.09-0.08-0.14-0.18-0.14-0.31c0-0.19,0.07-0.38,0.21-0.57
		s0.35-0.33,0.64-0.45c0.29-0.12,0.65-0.18,1.09-0.18c0.49,0,0.87,0.06,1.15,0.17c0.28,0.11,0.47,0.3,0.59,0.54
		c0.11,0.25,0.17,0.58,0.17,0.99c0,0.26,0,0.48,0,0.66c0,0.18,0,0.38-0.01,0.6c0,0.21,0.03,0.42,0.1,0.65s0.1,0.37,0.1,0.43
		c0,0.11-0.05,0.22-0.16,0.31c-0.11,0.09-0.23,0.14-0.36,0.14c-0.11,0-0.23-0.05-0.34-0.16S22.06,40.62,21.93,40.42z M21.86,38.82
		c-0.16,0.06-0.4,0.12-0.71,0.19c-0.31,0.07-0.52,0.12-0.64,0.15c-0.12,0.03-0.23,0.09-0.34,0.18c-0.11,0.09-0.16,0.22-0.16,0.38
		c0,0.17,0.06,0.31,0.19,0.43c0.13,0.12,0.29,0.18,0.5,0.18c0.22,0,0.42-0.05,0.6-0.14s0.32-0.22,0.41-0.37
		c0.1-0.17,0.15-0.44,0.15-0.83V38.82z"/>
	<path class="st8" d="M26.45,38.63h-1.1v1.68c0,0.24-0.06,0.42-0.17,0.55s-0.26,0.19-0.43,0.19c-0.18,0-0.33-0.06-0.44-0.18
		c-0.11-0.12-0.17-0.3-0.17-0.54v-4.58c0-0.26,0.06-0.45,0.18-0.57S24.64,35,24.9,35h1.54c0.46,0,0.81,0.04,1.05,0.11
		c0.24,0.07,0.45,0.18,0.63,0.34c0.18,0.16,0.31,0.35,0.4,0.58s0.14,0.48,0.14,0.76c0,0.6-0.19,1.06-0.56,1.38
		C27.74,38.47,27.18,38.63,26.45,38.63z M26.15,35.91h-0.81v1.81h0.81c0.28,0,0.52-0.03,0.71-0.09s0.34-0.16,0.44-0.29
		c0.1-0.13,0.15-0.31,0.15-0.53c0-0.26-0.08-0.47-0.23-0.64C27.05,35.99,26.69,35.91,26.15,35.91z"/>
	<path class="st8" d="M32.07,40.42c-0.27,0.21-0.53,0.36-0.78,0.47c-0.25,0.1-0.53,0.16-0.84,0.16c-0.28,0-0.53-0.06-0.75-0.17
		c-0.21-0.11-0.38-0.26-0.5-0.46s-0.17-0.4-0.17-0.62c0-0.3,0.1-0.56,0.29-0.77c0.19-0.21,0.46-0.36,0.79-0.43
		c0.07-0.02,0.24-0.05,0.52-0.11c0.28-0.06,0.52-0.11,0.71-0.16c0.2-0.05,0.41-0.1,0.65-0.17c-0.01-0.29-0.07-0.51-0.18-0.64
		c-0.1-0.14-0.32-0.2-0.65-0.2c-0.28,0-0.49,0.04-0.63,0.12c-0.14,0.08-0.26,0.2-0.36,0.35s-0.17,0.26-0.21,0.31
		s-0.13,0.08-0.27,0.08c-0.12,0-0.23-0.04-0.32-0.12c-0.09-0.08-0.14-0.18-0.14-0.31c0-0.19,0.07-0.38,0.21-0.57
		s0.35-0.33,0.64-0.45c0.29-0.12,0.65-0.18,1.09-0.18c0.49,0,0.87,0.06,1.15,0.17c0.28,0.11,0.47,0.3,0.59,0.54
		c0.11,0.25,0.17,0.58,0.17,0.99c0,0.26,0,0.48,0,0.66c0,0.18,0,0.38-0.01,0.6c0,0.21,0.04,0.42,0.1,0.65
		c0.07,0.23,0.1,0.37,0.1,0.43c0,0.11-0.05,0.22-0.16,0.31c-0.11,0.09-0.23,0.14-0.36,0.14c-0.11,0-0.23-0.05-0.34-0.16
		S32.2,40.62,32.07,40.42z M32,38.82c-0.16,0.06-0.4,0.12-0.71,0.19c-0.31,0.07-0.52,0.12-0.64,0.15c-0.12,0.03-0.23,0.09-0.34,0.18
		c-0.11,0.09-0.16,0.22-0.16,0.38c0,0.17,0.06,0.31,0.19,0.43s0.29,0.18,0.5,0.18c0.22,0,0.42-0.05,0.61-0.14
		c0.18-0.1,0.32-0.22,0.41-0.37c0.1-0.17,0.15-0.44,0.15-0.83V38.82z"/>
	<path class="st8" d="M37.77,39.6c0,0.3-0.07,0.57-0.22,0.78c-0.15,0.22-0.37,0.38-0.66,0.49c-0.29,0.11-0.64,0.17-1.06,0.17
		c-0.4,0-0.74-0.06-1.02-0.18s-0.49-0.27-0.63-0.46c-0.14-0.18-0.2-0.37-0.2-0.55c0-0.12,0.04-0.23,0.13-0.31
		c0.09-0.09,0.2-0.13,0.33-0.13c0.12,0,0.21,0.03,0.27,0.08c0.06,0.06,0.12,0.14,0.18,0.24c0.11,0.2,0.25,0.34,0.41,0.44
		c0.16,0.1,0.37,0.15,0.65,0.15c0.22,0,0.4-0.05,0.54-0.15c0.14-0.1,0.21-0.21,0.21-0.34c0-0.19-0.07-0.34-0.22-0.42
		s-0.39-0.17-0.73-0.25c-0.38-0.09-0.69-0.19-0.93-0.3c-0.24-0.1-0.43-0.24-0.57-0.41c-0.14-0.17-0.21-0.38-0.21-0.63
		c0-0.22,0.07-0.43,0.2-0.63c0.13-0.2,0.33-0.35,0.58-0.47s0.57-0.18,0.93-0.18c0.29,0,0.54,0.03,0.77,0.09
		c0.23,0.06,0.42,0.14,0.57,0.24c0.15,0.1,0.27,0.21,0.35,0.33c0.08,0.12,0.12,0.24,0.12,0.36c0,0.13-0.04,0.23-0.13,0.31
		C37.34,37.96,37.22,38,37.06,38c-0.11,0-0.21-0.03-0.29-0.1c-0.08-0.06-0.17-0.16-0.27-0.29c-0.08-0.11-0.18-0.19-0.29-0.26
		c-0.11-0.07-0.27-0.1-0.46-0.1c-0.2,0-0.37,0.04-0.5,0.13c-0.13,0.08-0.2,0.19-0.2,0.32c0,0.12,0.05,0.21,0.15,0.29
		c0.1,0.07,0.23,0.14,0.39,0.18c0.17,0.05,0.39,0.11,0.68,0.18c0.34,0.08,0.62,0.18,0.84,0.3c0.22,0.12,0.38,0.25,0.49,0.41
		C37.71,39.21,37.77,39.39,37.77,39.6z"/>
	<path class="st8" d="M42.26,39.6c0,0.3-0.07,0.57-0.22,0.78c-0.15,0.22-0.37,0.38-0.66,0.49c-0.29,0.11-0.64,0.17-1.06,0.17
		c-0.4,0-0.74-0.06-1.02-0.18s-0.49-0.27-0.63-0.46c-0.14-0.18-0.2-0.37-0.2-0.55c0-0.12,0.04-0.23,0.13-0.31
		c0.09-0.09,0.2-0.13,0.33-0.13c0.12,0,0.21,0.03,0.27,0.08c0.06,0.06,0.12,0.14,0.18,0.24c0.11,0.2,0.25,0.34,0.41,0.44
		c0.16,0.1,0.37,0.15,0.65,0.15c0.22,0,0.4-0.05,0.54-0.15c0.14-0.1,0.21-0.21,0.21-0.34c0-0.19-0.07-0.34-0.22-0.42
		s-0.39-0.17-0.73-0.25c-0.38-0.09-0.69-0.19-0.93-0.3c-0.24-0.1-0.43-0.24-0.57-0.41c-0.14-0.17-0.21-0.38-0.21-0.63
		c0-0.22,0.07-0.43,0.2-0.63c0.13-0.2,0.33-0.35,0.58-0.47s0.57-0.18,0.93-0.18c0.29,0,0.54,0.03,0.77,0.09
		c0.23,0.06,0.42,0.14,0.57,0.24c0.15,0.1,0.27,0.21,0.35,0.33c0.08,0.12,0.12,0.24,0.12,0.36c0,0.13-0.04,0.23-0.13,0.31
		C41.83,37.96,41.71,38,41.56,38c-0.11,0-0.21-0.03-0.29-0.1c-0.08-0.06-0.17-0.16-0.27-0.29c-0.08-0.11-0.18-0.19-0.29-0.26
		c-0.11-0.07-0.27-0.1-0.46-0.1c-0.2,0-0.37,0.04-0.5,0.13c-0.13,0.08-0.2,0.19-0.2,0.32c0,0.12,0.05,0.21,0.15,0.29
		c0.1,0.07,0.23,0.14,0.39,0.18c0.17,0.05,0.39,0.11,0.68,0.18c0.34,0.08,0.62,0.18,0.84,0.3c0.22,0.12,0.38,0.25,0.49,0.41
		C42.2,39.21,42.26,39.39,42.26,39.6z"/>
</g>
<g class="st13">
	<path class="st14" d="M39.22,12.62v0.11c0,1.46-0.48,2.83-1.37,3.97l-0.15,0.18c-0.05,0.05-0.1,0.11-0.15,0.17
		c-0.39,0.49-0.71,1.03-0.95,1.61c-0.24,0.55-0.39,1.11-0.48,1.76c-0.04,0.35-0.26,0.64-0.56,0.77c0.03,0.04,0.05,0.08,0.07,0.12
		c0.07,0.11,0.11,0.24,0.14,0.37c0.01,0.06,0.01,0.12,0.01,0.18c0,0.32-0.13,0.61-0.33,0.82c0.08,0.08,0.14,0.16,0.19,0.26
		c0.07,0.11,0.11,0.24,0.13,0.38c0.01,0.06,0.01,0.11,0.01,0.17c0,0.6-0.45,1.1-1.02,1.18c-0.07,0.6-0.43,1.11-0.94,1.39
		c-0.19,0.11-0.4,0.19-0.63,0.22C33.1,26.29,33,26.3,32.91,26.3h-0.19c-0.72,0-1.34-0.4-1.65-0.99c-0.11-0.19-0.17-0.41-0.2-0.64
		c-0.6-0.06-1.07-0.56-1.07-1.18c0-0.31,0.12-0.6,0.33-0.81c-0.21-0.21-0.33-0.5-0.33-0.82c0-0.24,0.07-0.46,0.19-0.64
		c-0.31-0.14-0.54-0.42-0.6-0.77c-0.1-0.64-0.26-1.24-0.5-1.81c-0.24-0.6-0.56-1.18-0.99-1.77l-0.13-0.16
		c-0.9-1.15-1.37-2.52-1.37-3.98c0-0.4,0.04-0.79,0.11-1.17c0.06-0.35,0.15-0.68,0.27-1h0.67c0.6-1.9,2.05-3.42,3.9-4.1
		c0.47-0.11,0.96-0.17,1.46-0.17c2.24,0,4.22,1.17,5.36,2.93C38.82,10.2,39.2,11.37,39.22,12.62z"/>
</g>
<path class="st15" d="M33.66,25.7h-0.19c-0.83,0-1.5-0.67-1.5-1.5l0,0h3.19l0,0C35.16,25.03,34.48,25.7,33.66,25.7z"/>
<linearGradient id="SVGID_4_" gradientUnits="userSpaceOnUse" x1="30.8922" y1="23.9188" x2="36.3297" y2="22.5828">
	<stop  offset="0" style="stop-color:#0061AA"/>
	<stop  offset="0.1842" style="stop-color:#0067AD"/>
	<stop  offset="0.5222" style="stop-color:#0078B8"/>
	<stop  offset="0.8516" style="stop-color:#008DC5"/>
</linearGradient>
<path class="st16" d="M35.36,24.08h-3.6c-0.45,0-0.81-0.36-0.81-0.81l0,0c0-0.45,0.36-0.81,0.81-0.81h3.6
	c0.45,0,0.81,0.36,0.81,0.81l0,0C36.17,23.71,35.81,24.08,35.36,24.08z"/>
<linearGradient id="SVGID_5_" gradientUnits="userSpaceOnUse" x1="30.8641" y1="22.1166" x2="36.1727" y2="21.1673">
	<stop  offset="0" style="stop-color:#0061AA"/>
	<stop  offset="0.2289" style="stop-color:#006AAF"/>
	<stop  offset="0.6837" style="stop-color:#0081BD"/>
	<stop  offset="0.882" style="stop-color:#008DC5"/>
</linearGradient>
<path class="st17" d="M35.36,22.45h-3.6c-0.45,0-0.81-0.36-0.81-0.81l0,0c0-0.45,0.36-0.81,0.81-0.81h3.6
	c0.45,0,0.81,0.36,0.81,0.81l0,0C36.17,22.08,35.81,22.45,35.36,22.45z"/>
<g>
	<path class="st8" d="M33.56,6.06c-0.78,0-1.52,0.14-2.21,0.4c-1.85,0.68-3.3,2.2-3.9,4.1c-0.1,0.32-0.18,0.66-0.23,1
		c-0.05,0.31-0.07,0.62-0.07,0.94c0,1.46,0.47,2.83,1.37,3.98l0.13,0.16c0.43,0.59,0.75,1.17,0.99,1.77c0.24,0.57,0.4,1.17,0.5,1.81
		c0.06,0.35,0.29,0.63,0.6,0.77c-0.12,0.18-0.19,0.4-0.19,0.64c0,0.32,0.12,0.61,0.33,0.82c-0.21,0.21-0.33,0.5-0.33,0.81
		c0,0.62,0.47,1.12,1.07,1.18c0.04,0.32,0.16,0.62,0.35,0.87c0.28,0.39,0.71,0.66,1.22,0.74c0.09,0.01,0.18,0.02,0.28,0.02h0.19
		c0.05,0,0.11,0,0.16-0.01c0.88-0.07,1.59-0.75,1.69-1.62c0.57-0.08,1.02-0.58,1.02-1.18c0-0.31-0.12-0.6-0.33-0.81
		c0.2-0.21,0.33-0.5,0.33-0.82c0-0.25-0.08-0.48-0.22-0.67c0.3-0.13,0.52-0.42,0.56-0.77c0.09-0.65,0.24-1.21,0.48-1.76
		c0.24-0.58,0.56-1.12,0.95-1.61c0.05-0.06,0.1-0.12,0.15-0.17l0.15-0.18c0.89-1.14,1.37-2.51,1.37-3.97
		C39.97,8.95,37.09,6.06,33.56,6.06z M33.66,25.32h-0.19c-0.1,0-0.19-0.01-0.28-0.04c-0.37-0.09-0.66-0.36-0.78-0.71h2.31
		C34.56,25.01,34.15,25.32,33.66,25.32z M35.77,23.32c-0.03,0.22-0.21,0.38-0.43,0.38h-3.6c-0.24,0-0.44-0.19-0.44-0.44
		c0-0.24,0.2-0.44,0.44-0.44h3.6c0.12,0,0.22,0.05,0.3,0.12c0.09,0.08,0.14,0.2,0.14,0.32C35.78,23.28,35.78,23.3,35.77,23.32z
		 M35.77,21.68c-0.02,0.23-0.21,0.39-0.43,0.39h-3.6c-0.24,0-0.44-0.19-0.44-0.44c0-0.24,0.2-0.43,0.44-0.43h3.6
		c0.11,0,0.21,0.04,0.29,0.11c0.09,0.08,0.15,0.19,0.15,0.32C35.78,21.65,35.78,21.67,35.77,21.68z M37.98,16.04l-0.08,0.1
		c-0.07,0.07-0.14,0.15-0.19,0.23c-0.43,0.53-0.79,1.13-1.06,1.77c-0.25,0.6-0.42,1.24-0.52,1.95c-0.02,0.13-0.11,0.22-0.23,0.22
		h-4.79c-0.12,0-0.21-0.09-0.23-0.21c-0.1-0.69-0.29-1.35-0.54-1.97c-0.27-0.66-0.62-1.29-1.09-1.93l-0.15-0.19
		c-0.79-1.01-1.2-2.22-1.2-3.51c0-0.32,0.03-0.64,0.09-0.94c0.05-0.35,0.14-0.68,0.26-1c0.78-2.18,2.87-3.75,5.31-3.75
		c1.91,0,3.59,0.96,4.61,2.41c0.66,0.93,1.05,2.07,1.05,3.28v0.12C39.19,13.87,38.77,15.03,37.98,16.04z"/>
</g>
<linearGradient id="SVGID_6_" gradientUnits="userSpaceOnUse" x1="36.1993" y1="8.1921" x2="36.2461" y2="20.2155">
	<stop  offset="0" style="stop-color:#FCEA7C"/>
	<stop  offset="0.1106" style="stop-color:#FCE574"/>
	<stop  offset="0.2812" style="stop-color:#FDD85D"/>
	<stop  offset="0.4895" style="stop-color:#FDC236"/>
	<stop  offset="0.5435" style="stop-color:#FEBC2A"/>
	<stop  offset="0.5789" style="stop-color:#FCB42A"/>
	<stop  offset="0.6978" style="stop-color:#F89B29"/>
	<stop  offset="0.8108" style="stop-color:#F68A28"/>
	<stop  offset="0.9145" style="stop-color:#F57F28"/>
	<stop  offset="1" style="stop-color:#F47C27"/>
</linearGradient>
<path class="st18" d="M39.22,12.5c0,1.29-0.42,2.5-1.24,3.54l-0.08,0.1c-0.07,0.07-0.14,0.15-0.19,0.23
	c-0.43,0.53-0.79,1.13-1.06,1.77c-0.25,0.6-0.42,1.24-0.52,1.95c-0.02,0.13-0.11,0.22-0.23,0.22h-0.45
	c-0.01-0.06-0.05-0.09-0.12-0.1c0.03-0.03,0.04-0.07,0.05-0.12c0.1-0.71,0.27-1.35,0.52-1.95c0.27-0.64,0.63-1.24,1.06-1.77
	c0.05-0.08,0.12-0.16,0.19-0.23l0.08-0.1c0.82-1.04,1.24-2.25,1.24-3.54c0-3-2.34-5.48-5.28-5.67c0.12-0.02,0.25-0.02,0.37-0.02
	C36.68,6.81,39.22,9.37,39.22,12.5z"/>
<radialGradient id="SVGID_7_" cx="35.6797" cy="11.3984" r="7.0142" fx="35.1208" fy="11.1772" gradientTransform="matrix(-0.441 0.8975 -0.8716 -0.4283 61.3502 -15.7421)" gradientUnits="userSpaceOnUse">
	<stop  offset="0.2973" style="stop-color:#FFD31E"/>
	<stop  offset="0.6262" style="stop-color:#F9AA28"/>
	<stop  offset="0.8698" style="stop-color:#F79129"/>
	<stop  offset="1" style="stop-color:#F68829"/>
</radialGradient>
<path class="st19" d="M38.47,12.5c0,1.29-0.42,2.5-1.24,3.54l-0.08,0.1c-0.07,0.07-0.14,0.15-0.19,0.23
	c-0.43,0.53-0.79,1.13-1.06,1.77c-0.25,0.6-0.42,1.24-0.52,1.95c-0.01,0.05-0.02,0.09-0.05,0.12c-0.44-0.05-1.59-0.34-2.28-0.52
	c-0.3-0.08-0.53-0.3-0.6-0.6c-0.13-0.61-0.6-1.83-2.2-3.71c-2.29-2.71-1.14-6.18-1.03-6.52c0.96-1.16,2.38-1.93,3.97-2.03
	C36.13,7.02,38.47,9.5,38.47,12.5z"/>
<linearGradient id="SVGID_8_" gradientUnits="userSpaceOnUse" x1="28.382" y1="14.7151" x2="34.0773" y2="14.5276">
	<stop  offset="0" style="stop-color:#F15928"/>
	<stop  offset="1" style="stop-color:#F26825"/>
</linearGradient>
<path class="st20" d="M35.45,20.31h-4.34c-0.12,0-0.21-0.09-0.23-0.21c-0.1-0.69-0.29-1.35-0.54-1.97
	c-0.27-0.66-0.62-1.29-1.09-1.93l-0.15-0.19c-0.79-1.01-1.2-2.22-1.2-3.51c0-1.38,0.49-2.66,1.32-3.64
	c-0.11,0.34-1.26,3.81,1.03,6.52c1.6,1.88,2.07,3.1,2.2,3.71c0.07,0.3,0.3,0.52,0.6,0.6c0.69,0.18,1.84,0.47,2.28,0.52
	C35.4,20.22,35.44,20.25,35.45,20.31z"/>
<g>
	<path class="st21" d="M36.95,11.94c-0.12,0-0.22-0.08-0.25-0.2c-0.23-1.25-1.47-2.13-1.49-2.14c-0.11-0.08-0.14-0.23-0.06-0.35
		c0.08-0.11,0.24-0.14,0.35-0.06c0.06,0.04,1.42,1,1.69,2.46c0.02,0.14-0.07,0.27-0.2,0.29C36.98,11.94,36.96,11.94,36.95,11.94z"/>
</g>
</svg>
