<svg xmlns="http://www.w3.org/2000/svg" viewBox="0 0 26 39.94"><defs><style>.cls-1{fill:none;stroke:#231f20;stroke-miterlimit:10;}.cls-2{fill:#231f20;}</style></defs><g id="Layer_2" data-name="Layer 2"><g id="Layer_1-2" data-name="Layer 1"><path class="cls-1" d="M25.5,13a18.77,18.77,0,0,1-4.71,11.78,12.07,12.07,0,0,0-3.18,8v.49a3.18,3.18,0,0,1-3.18,3.18H11.57a3.18,3.18,0,0,1-3.18-3.18v-.49a12.07,12.07,0,0,0-3.18-8A18.77,18.77,0,0,1,.5,13,12.5,12.5,0,0,1,19.83,2.53,12.92,12.92,0,0,1,17.51,5.4l.62,1.25L14.7,8.43a17,17,0,0,0,5.15-1.81l-.4-1.09A10.45,10.45,0,0,0,21.57,3.9,12.46,12.46,0,0,1,25.5,13Z"/><path class="cls-2" d="M16.85,36.58h0a3.36,3.36,0,0,1-3.36,3.36h-1a3.36,3.36,0,0,1-3.36-3.36h0a4.27,4.27,0,0,0,2.16.57h3.38A4.27,4.27,0,0,0,16.85,36.58Z"/><path class="cls-1" d="M9.59,13.54a2.49,2.49,0,1,1-5,0"/><path class="cls-1" d="M21.07,13.54a2.49,2.49,0,0,1-5,0"/><path class="cls-1" d="M7.8,24.82a5.2,5.2,0,0,1,10.4,0"/></g></g></svg>